<svg version="1.1" id="Layer_1" xmlns="http://www.w3.org/2000/svg" xmlns:xlink="http://www.w3.org/1999/xlink" x="0px" y="0px"
	 width="100%" viewBox="0 0 300 158" enable-background="new 0 0 300 158" xml:space="preserve">
<path fill="#E0B43F" opacity="1.000000" stroke="none" 
	d="
M197.000000,159.000000 
	C132.666672,159.000000 68.833282,158.964981 5.000223,159.096725 
	C1.575529,159.103790 0.893141,158.425079 0.902538,154.999756 
	C1.043355,103.666824 1.000000,52.333370 1.000000,1.000021 
	C99.666634,1.000000 198.333298,1.022792 296.999786,0.904436 
	C300.423737,0.900329 301.107239,1.574700 301.097565,5.000197 
	C300.955658,55.166458 300.966858,105.333321 301.083160,155.499710 
	C301.090088,158.482391 300.484009,159.096512 297.499756,159.084534 
	C264.166931,158.950592 230.833359,159.000000 197.000000,159.000000 
z"/>
<path fill="#F8F6EF" opacity="1.000000" stroke="none" 
	d="
M196.552582,17.790291 
	C197.173401,18.248188 197.370468,18.464775 197.758255,18.801180 
	C199.250305,20.190367 199.489227,21.805674 199.478271,23.511349 
	C199.416367,33.148651 199.709900,42.787895 199.189728,52.895226 
	C198.898758,53.650177 198.736954,53.933304 198.203094,54.533043 
	C188.258118,56.305126 178.625381,55.109852 168.555908,55.499443 
	C155.452927,55.785732 142.808212,54.910988 129.796844,56.054897 
	C128.613388,56.317055 127.798920,56.384438 127.018730,56.615112 
	C125.174339,57.160431 123.703033,58.243355 123.533020,60.225670 
	C123.331192,62.578873 125.090462,63.602951 126.999992,64.333870 
	C127.760742,64.625061 128.572845,64.724625 129.765442,64.882774 
	C141.283035,66.177002 152.451157,65.175240 164.016357,65.516289 
	C165.776413,65.475784 167.100891,65.875885 168.832062,65.592590 
	C186.911377,68.893784 198.137253,79.343987 203.247864,96.924179 
	C203.280502,98.523125 203.010773,99.752441 203.415741,101.341125 
	C203.413345,103.249878 203.685684,104.745590 204.094513,106.621338 
	C204.252274,108.328636 204.012604,109.648643 204.178864,111.365662 
	C204.087967,112.814270 203.824188,113.829391 203.532074,115.228897 
	C203.477203,115.866020 203.458832,116.120377 203.390564,116.752052 
	C201.474777,126.963036 197.582321,135.710526 189.518494,142.600616 
	C187.495560,143.565292 185.853180,144.437851 184.435638,146.231262 
	C184.018402,146.628693 183.841873,146.776398 183.359955,147.079895 
	C181.046631,147.516968 179.312988,148.580948 177.145813,149.379333 
	C176.667648,149.643539 176.470001,149.736618 175.951141,149.890747 
	C173.885666,149.933578 172.226349,150.622772 170.173630,150.684509 
	C168.068008,151.013214 166.266754,151.227753 164.129333,151.631409 
	C163.028336,152.715683 161.977158,152.491562 161.009827,152.489883 
	C137.945908,152.449997 114.881783,152.604858 91.415398,152.132233 
	C91.012756,151.845261 91.069771,151.479584 91.037209,151.297409 
	C91.670731,147.985336 94.517471,147.807037 96.766586,147.187866 
	C105.254173,144.851242 112.491074,140.330826 119.348335,134.997849 
	C122.215576,132.767960 122.623756,130.759933 119.833145,128.165527 
	C117.653862,126.139473 115.537750,124.024475 113.568214,121.784653 
	C112.140900,120.161469 110.681610,118.495567 111.718307,115.718369 
	C112.171738,115.242340 112.396149,115.087334 113.020187,114.804001 
	C122.851242,114.281693 132.287033,114.600670 141.720367,114.506409 
	C143.872086,114.484901 146.027863,114.576080 148.522171,113.930252 
	C151.362808,113.315727 154.507812,113.558136 154.675156,109.949707 
	C154.827591,106.661743 152.446274,105.605057 149.238968,105.197350 
	C137.336670,103.731964 125.777512,104.867569 113.830780,104.483215 
	C92.924423,103.297058 78.741150,90.756287 75.125809,70.585419 
	C74.892540,69.283997 74.712143,67.970711 74.438507,66.273453 
	C74.602997,63.997753 74.394867,62.101585 74.800659,59.833405 
	C75.062943,59.204235 75.206566,58.970104 75.654022,58.459183 
	C77.433342,57.332615 79.058342,57.577240 81.019402,57.561981 
	C85.568336,58.186863 89.396713,59.740070 92.906364,62.020649 
	C94.927544,63.334011 96.515976,63.083347 98.194290,61.429440 
	C105.521187,54.209126 112.791077,46.932854 120.013367,39.607960 
	C122.029785,37.562897 122.203171,35.839973 119.965317,33.748562 
	C116.786507,30.777756 113.322884,28.317629 109.467033,26.302225 
	C107.216644,25.125973 104.300362,24.492617 103.880722,20.916496 
	C106.440529,19.932112 108.930496,19.291592 111.733521,18.445381 
	C112.928032,17.113438 114.183807,17.517370 115.291649,17.518200 
	C142.231186,17.538416 169.170837,17.414524 196.552582,17.790291 
z"/>
<path fill="#0E6129" opacity="1.000000" stroke="none" 
	d="
M201.863434,98.265343 
	C198.380341,91.576050 196.759933,84.330421 191.391281,79.033798 
	C187.560104,75.254021 183.139694,72.606361 178.306366,70.509293 
	C175.478821,69.282494 172.571106,68.240547 169.323410,67.185623 
	C164.629684,64.638481 166.023865,60.575790 166.497498,56.395008 
	C166.865463,55.752846 167.036453,55.511559 167.561188,55.007015 
	C168.475555,54.567047 169.048752,54.500622 170.049164,54.658020 
	C178.900787,55.253960 187.343414,54.938282 196.194214,54.859356 
	C196.845749,54.645668 197.087051,54.508278 197.559357,54.024330 
	C197.790359,53.677776 197.808334,53.877766 197.707947,53.877518 
	C198.205261,53.694721 198.547058,53.292881 198.755981,52.262264 
	C199.122116,41.690258 199.001099,31.530733 198.867752,20.939728 
	C198.729309,20.224640 198.660492,19.941154 198.833038,19.292673 
	C199.855225,18.655834 200.636063,18.383989 201.729004,18.142288 
	C202.621338,18.396034 203.207794,18.601828 204.265839,18.864124 
	C230.367752,19.082090 256.004486,18.950708 281.640991,19.015142 
	C283.789154,19.020542 285.973785,18.698406 288.462708,19.729202 
	C288.893768,29.696211 288.941010,39.375847 288.918823,49.518402 
	C286.967224,51.552803 284.707275,50.964653 282.600433,50.974308 
	C261.448822,51.071293 240.296661,50.890301 218.676544,51.178467 
	C217.929398,51.428947 217.650742,51.583782 217.268280,52.205376 
	C213.825928,54.185402 211.666473,56.503803 212.372726,60.432419 
	C213.121841,64.599365 216.301254,65.868446 220.329315,66.566750 
	C220.941956,67.082199 221.295456,67.298180 222.056229,67.455032 
	C233.885147,67.596115 245.370682,67.217590 257.242188,67.947891 
	C258.175079,67.821259 258.691772,67.674606 259.575562,67.345490 
	C277.092316,70.014977 288.101501,79.915245 291.802124,95.849724 
	C296.278137,115.123055 290.116547,132.557205 274.841919,143.000473 
	C274.109985,143.133743 273.738220,143.303146 273.215668,143.818481 
	C273.014313,144.057144 273.017944,143.996826 273.042297,144.014709 
	C272.587677,144.416580 271.986450,144.487061 271.222443,144.882401 
	C271.015472,145.093857 271.028687,145.024551 271.062012,145.036072 
	C270.600159,145.397980 270.010468,145.489426 269.228943,145.849670 
	C269.011932,146.049500 269.017181,145.992950 269.039124,146.011017 
	C268.593079,146.406540 268.019043,146.491745 267.231812,146.790497 
	C267.006256,146.969986 266.716797,147.159836 266.546967,147.126358 
	C265.470215,147.549271 264.465332,147.455917 263.255798,147.876038 
	C263.007965,148.147034 263.027649,148.052338 263.074463,148.064560 
	C260.969269,148.737350 258.711243,148.627426 256.030670,148.990768 
	C233.135513,149.004562 210.727203,149.031921 188.319366,148.943512 
	C186.265060,148.935410 183.446167,150.125305 182.706345,146.283295 
	C182.870193,145.816223 182.899216,145.916229 182.857178,145.885498 
	C184.822571,145.233170 186.274780,143.865784 187.734833,142.006287 
	C194.898285,135.046371 199.555984,127.086296 201.458282,117.186371 
	C201.926926,116.747551 202.187363,116.613144 202.870285,116.359703 
	C215.423676,116.566795 227.554428,116.856087 240.045471,115.953842 
	C240.619156,115.663857 240.828552,115.522171 241.316757,115.134506 
	C247.777817,110.391586 248.220352,108.469376 243.950043,103.321121 
	C243.245132,102.461937 242.743774,101.911964 241.755096,101.307251 
	C234.035538,99.807518 226.619049,100.774933 219.237122,100.513321 
	C214.142120,100.332756 209.036392,100.727600 203.512573,100.141899 
	C202.522491,99.702812 202.097137,99.279602 201.863434,98.265343 
z"/>
<path fill="#0E6129" opacity="1.000000" stroke="none" 
	d="
M112.039322,116.119934 
	C114.234177,121.126045 118.617043,123.810944 121.960236,127.422546 
	C126.199966,132.002686 126.265282,132.446121 121.536827,136.150284 
	C112.613243,143.140839 102.837471,148.357803 91.346695,150.955353 
	C88.601509,151.411026 86.198364,151.706802 83.392838,151.948059 
	C82.815445,151.757294 82.640442,151.621033 82.169266,151.333069 
	C78.774010,150.819199 75.666023,151.047577 72.233421,151.090210 
	C71.485947,151.278931 71.066216,151.417130 70.342346,151.685715 
	C40.683296,149.256668 13.326469,126.108559 9.096371,91.390472 
	C9.266480,90.801956 9.402715,90.614716 9.686457,90.112885 
	C10.173167,86.095276 9.950453,82.385643 9.922336,78.335251 
	C9.745069,77.550980 9.602610,77.112778 9.319553,76.358536 
	C13.152904,38.913521 47.024719,11.583831 83.959007,15.805189 
	C90.512825,16.554251 97.012596,17.741871 103.545586,20.475882 
	C108.212532,23.821199 113.544182,25.306934 117.618744,28.878193 
	C118.345901,29.515526 119.414307,29.790380 120.072472,30.475380 
	C126.110466,36.759586 126.141441,36.822731 119.493416,43.431316 
	C112.442535,50.440369 105.270805,57.327724 98.196106,64.313042 
	C96.646812,65.842758 95.279793,67.082367 93.248489,64.979599 
	C90.292290,61.919411 86.338470,60.765617 82.137932,59.337509 
	C81.747131,58.928257 81.650978,58.735458 81.285019,58.363007 
	C79.584877,57.826942 78.097260,58.164017 76.663940,57.822914 
	C76.337822,57.745304 76.040520,57.643856 75.792709,57.431671 
	C75.853584,57.544178 75.914467,57.656689 76.168007,57.934860 
	C76.374931,58.279030 76.389198,58.457535 76.227203,58.838734 
	C76.050949,59.041428 76.243179,59.100716 76.219955,59.198582 
	C75.987732,59.422493 75.778725,59.548538 75.263817,59.874413 
	C70.704803,62.592957 65.745598,63.662079 62.014217,67.344254 
	C50.510742,78.696030 52.775772,96.077164 66.863091,103.988266 
	C74.960098,108.535362 82.491783,107.211746 89.881500,102.470314 
	C95.266685,99.015038 97.160355,98.885353 101.619110,103.385803 
	C105.400322,107.202377 110.470673,110.049477 112.039322,116.119934 
z"/>
<path fill="#25642A" opacity="1.000000" stroke="none" 
	d="
M182.507568,145.810059 
	C183.954056,148.970764 186.667343,147.957306 188.803802,147.963699 
	C210.880005,148.029770 232.956467,148.007065 255.499390,148.008362 
	C256.324646,148.364502 256.494080,148.791595 256.232880,149.595581 
	C255.570206,149.969025 255.119904,150.046524 254.330994,150.055817 
	C252.266113,149.070053 250.401749,149.525528 248.608139,149.522308 
	C224.682495,149.479324 200.756775,149.515686 176.420258,149.222198 
	C177.721954,147.258316 179.940399,146.544632 182.507568,145.810059 
z"/>
<path fill="#005927" opacity="1.000000" stroke="none" 
	d="
M203.463440,19.222908 
	C202.754089,18.882986 202.520096,18.715862 202.178375,18.339939 
	C211.313278,17.042171 220.625153,17.652258 229.917938,17.599955 
	C247.694946,17.499901 265.472961,17.557878 283.250458,17.591351 
	C285.046814,17.594734 286.912537,17.183884 288.744110,18.542603 
	C287.994110,19.655672 286.969177,19.493910 285.989044,19.492752 
	C258.629150,19.460417 231.269119,19.581503 203.463440,19.222908 
z"/>
<path fill="#216329" opacity="1.000000" stroke="none" 
	d="
M203.348328,19.255173 
	C231.324707,19.001837 259.631836,18.994860 288.398163,18.980652 
	C288.889404,19.147625 288.921448,19.321829 288.900024,19.756306 
	C262.426422,20.010773 236.006256,20.012997 209.586136,19.982924 
	C207.613617,19.980679 205.591446,20.339733 203.348328,19.255173 
z"/>
<path fill="#E0AF00" opacity="1.000000" stroke="none" 
	d="
M196.679169,17.745052 
	C168.988449,18.102358 140.981979,18.190035 112.511047,18.258701 
	C113.115959,16.822517 114.679153,17.025650 116.155167,17.025263 
	C142.082077,17.018467 168.008972,17.018589 193.935867,17.043419 
	C194.745178,17.044193 195.554230,17.325108 196.679169,17.745052 
z"/>
<path fill="#035827" opacity="1.000000" stroke="none" 
	d="
M175.978577,148.899170 
	C199.811981,148.968475 223.614563,148.971497 247.417068,149.008514 
	C249.393646,149.011581 251.418320,148.656815 253.664764,149.734070 
	C228.992676,150.092361 203.992950,150.197159 178.529938,150.329468 
	C177.208023,150.519638 176.382874,150.561615 175.812744,149.307144 
	C175.825058,148.885803 175.947739,148.841736 175.978577,148.899170 
z"/>
<path fill="#E0B001" opacity="1.000000" stroke="none" 
	d="
M91.327957,152.118958 
	C114.970497,151.824249 138.928238,151.803223 163.339584,151.801361 
	C163.841690,153.565048 162.475906,152.955978 161.686890,152.957138 
	C139.131653,152.990601 116.576324,152.986526 94.021065,152.952988 
	C93.228149,152.951813 92.435776,152.587631 91.327957,152.118958 
z"/>
<path fill="#005A27" opacity="1.000000" stroke="none" 
	d="
M259.526062,67.096161 
	C259.788361,67.440544 259.587769,67.636131 259.171265,67.902466 
	C251.427689,69.109016 243.826187,68.300415 236.245712,68.466034 
	C230.456711,68.592522 224.660477,68.582672 218.432129,68.208832 
	C218.732330,67.630814 219.468628,67.277412 220.438477,66.832336 
	C233.483444,66.255714 246.292694,66.117828 259.526062,67.096161 
z"/>
<path fill="#005727" opacity="1.000000" stroke="none" 
	d="
M217.620605,52.613262 
	C217.137863,52.394993 217.111282,52.117847 217.041367,51.425323 
	C217.871429,50.358021 218.892456,50.505413 219.874008,50.506851 
	C242.578796,50.540112 265.283722,50.417046 288.424103,50.796532 
	C287.706879,53.303562 285.605682,52.160618 284.007294,52.168427 
	C264.188141,52.265285 244.368378,52.221939 224.548798,52.246037 
	C222.391327,52.248661 220.234085,52.446888 217.620605,52.613262 
z"/>
<path fill="#246329" opacity="1.000000" stroke="none" 
	d="
M288.907349,50.766495 
	C265.218475,51.019138 241.577164,51.009396 217.466949,51.004799 
	C218.877014,49.454090 221.125427,50.029839 223.227127,50.025784 
	C244.795410,49.984142 266.363800,49.996143 288.390778,49.987251 
	C288.884552,50.155582 288.919708,50.329845 288.907349,50.766495 
z"/>
<path fill="#004800" opacity="1.000000" stroke="none" 
	d="
M199.240219,52.515953 
	C198.735336,53.180153 198.431152,53.401745 197.867264,53.750305 
	C197.696884,42.545002 197.786240,31.212732 197.902985,19.409191 
	C198.120499,18.898777 198.310638,18.859634 198.787598,18.874084 
	C199.069489,19.119389 199.064560,19.311100 199.064178,19.790442 
	C200.006348,30.733696 199.305511,41.408379 199.240219,52.515953 
z"/>
<path fill="#005927" opacity="1.000000" stroke="none" 
	d="
M10.226435,90.570030 
	C10.015956,90.992668 9.573100,90.991058 9.351673,90.990128 
	C9.080533,86.308418 9.030819,81.627640 9.084484,76.493225 
	C9.426222,76.209717 9.629635,76.414536 9.906591,76.842369 
	C11.028997,81.374832 10.309526,85.774727 10.226435,90.570030 
z"/>
<path fill="#005927" opacity="1.000000" stroke="none" 
	d="
M82.558777,150.760986 
	C82.980331,150.961197 82.988792,151.427338 82.989624,151.660431 
	C78.974022,151.933838 74.957588,151.974136 70.489868,151.915833 
	C70.203842,151.569717 70.409073,151.361618 70.847107,151.086456 
	C74.706177,149.970749 78.438217,150.703201 82.558777,150.760986 
z"/>
<path fill="#938B33" opacity="1.000000" stroke="none" 
	d="
M175.464447,148.869385 
	C176.361145,149.280334 176.897247,149.674881 177.749985,150.213211 
	C175.680695,151.394226 173.187958,150.957077 170.295624,150.843842 
	C171.399124,149.571686 173.263519,149.244736 175.464447,148.869385 
z"/>
<path fill="#035827" opacity="1.000000" stroke="none" 
	d="
M256.396606,149.889557 
	C256.006165,149.472855 255.991821,149.054214 255.971695,148.321594 
	C258.051819,148.022095 260.137726,148.036560 262.672424,148.063904 
	C261.268555,149.604080 258.853180,149.158768 256.396606,149.889557 
z"/>
<path fill="#035827" opacity="1.000000" stroke="none" 
	d="
M263.371674,148.159698 
	C263.685120,147.306290 264.603699,147.064575 266.003601,147.091583 
	C265.496552,147.452698 264.615967,147.812531 263.371674,148.159698 
z"/>
<path fill="#035827" opacity="1.000000" stroke="none" 
	d="
M267.299774,146.969147 
	C267.499451,146.688370 267.992645,146.406769 268.773438,146.077103 
	C268.571808,146.342148 268.082550,146.655243 267.299774,146.969147 
z"/>
<path fill="#035827" opacity="1.000000" stroke="none" 
	d="
M269.313080,146.035309 
	C269.508514,145.745377 270.005127,145.441238 270.798523,145.092346 
	C270.601624,145.372101 270.107910,145.696609 269.313080,146.035309 
z"/>
<path fill="#035827" opacity="1.000000" stroke="none" 
	d="
M271.313110,145.063629 
	C271.502411,144.774734 271.989380,144.455612 272.771484,144.084534 
	C272.581390,144.366180 272.096069,144.699799 271.313110,145.063629 
z"/>
<path fill="#035827" opacity="1.000000" stroke="none" 
	d="
M273.326385,143.999527 
	C273.327484,143.801147 273.640686,143.545151 274.239746,143.173340 
	C274.229919,143.352310 273.934174,143.647110 273.326385,143.999527 
z"/>
<path fill="#E0B440" opacity="1.000000" stroke="none" 
	d="
M112.117828,116.372116 
	C107.269409,111.855583 102.458824,107.277443 97.774506,102.573563 
	C96.244125,101.036797 95.306076,100.710434 93.320610,102.246933 
	C83.273804,110.021927 74.045273,110.775253 64.497452,104.963837 
	C55.641075,99.573273 51.069771,89.448784 52.948948,79.386269 
	C54.953991,68.649803 62.472313,61.525345 74.593781,59.281723 
	C76.120461,61.283779 75.126236,63.459660 75.921837,65.722031 
	C77.594154,72.815918 79.189354,79.665001 83.057205,85.562637 
	C89.739845,95.752205 99.541069,101.006966 111.858475,102.622971 
	C113.966606,104.190254 116.015968,103.451279 117.913795,103.459671 
	C128.661865,103.507156 139.410767,103.576050 150.560272,103.252922 
	C154.700027,103.216873 156.585556,105.533478 157.035507,108.890007 
	C157.559265,112.797073 155.427963,115.080322 151.316376,115.937790 
	C138.239426,115.019798 125.520660,115.667427 112.411446,115.811371 
	C112.014183,116.054817 112.204781,116.261612 112.117828,116.372116 
z"/>
<path fill="#D9B03E" opacity="1.000000" stroke="none" 
	d="
M244.585327,101.710037 
	C250.867233,107.076218 250.364059,111.801682 243.315735,115.283630 
	C242.036575,117.781441 239.916763,116.942177 238.271072,116.949692 
	C227.167740,117.000412 216.063416,117.093361 204.496902,116.840622 
	C201.938690,116.101608 202.675308,114.289871 202.260757,112.455231 
	C202.033295,110.617142 201.991302,109.196877 202.034790,107.357719 
	C203.022644,104.964523 201.992981,102.755188 203.257141,100.524673 
	C215.785828,99.662949 227.934998,100.158691 240.079407,100.004303 
	C241.652344,99.984299 243.034744,100.348549 244.585327,101.710037 
z"/>
<path fill="#E2B541" opacity="1.000000" stroke="none" 
	d="
M167.432205,54.785156 
	C168.117630,58.825222 168.382782,62.642113 168.797653,66.857407 
	C168.157318,68.352386 167.206253,67.620392 166.062241,67.323997 
	C163.007721,65.793739 160.020340,66.568970 157.128433,66.542725 
	C147.726273,66.457382 138.322205,66.437080 128.506409,66.704620 
	C124.324463,66.838692 121.842712,65.015602 121.211525,61.310604 
	C120.536568,57.348766 123.392960,55.598206 126.739571,54.115620 
	C140.396530,54.982449 153.710159,54.207336 167.432205,54.785156 
z"/>
<path fill="#055A29" opacity="1.000000" stroke="none" 
	d="
M244.871887,101.711060 
	C236.811188,100.339272 228.542587,101.440468 220.318192,101.188812 
	C214.874847,101.022255 209.423111,101.130043 203.513092,101.172813 
	C202.812073,101.355721 202.573090,101.480827 202.046844,101.320969 
	C201.150116,100.125656 200.798615,99.181183 201.647736,97.961105 
	C202.143478,98.097740 202.364594,98.387497 202.806427,98.841141 
	C210.584824,100.114243 218.184677,99.270340 225.762543,99.477127 
	C231.551300,99.635094 237.346466,99.420616 243.566696,99.777275 
	C244.247665,100.481247 244.500015,100.971802 244.871887,101.711060 
z"/>
<path fill="#005828" opacity="1.000000" stroke="none" 
	d="
M202.764099,115.350342 
	C216.078827,115.989494 229.088882,115.695457 242.569519,115.483994 
	C243.030426,115.719238 243.020340,115.983269 242.995407,116.643349 
	C229.963394,118.043060 216.928406,117.293343 203.461716,117.223953 
	C202.795334,116.987709 202.569748,116.964592 202.005341,116.911713 
	C201.659317,116.658401 201.652145,116.434860 201.767761,115.899101 
	C202.078964,115.504555 202.267395,115.422234 202.764099,115.350342 
z"/>
<path fill="#E0AF00" opacity="1.000000" stroke="none" 
	d="
M167.953278,54.978279 
	C154.493912,54.719284 141.124344,55.497047 127.435982,54.369019 
	C140.457321,54.065975 153.814789,53.988716 167.641449,53.995239 
	C168.280136,54.196072 168.449600,54.313122 168.441589,54.683041 
	C168.264099,54.935913 168.054077,54.948227 167.953278,54.978279 
z"/>
<path fill="#E0AE01" opacity="1.000000" stroke="none" 
	d="
M150.501312,102.982124 
	C150.043350,103.363289 149.118454,103.944595 148.208054,103.922752 
	C136.184998,103.634132 124.140030,104.757812 112.166878,103.102470 
	C124.813042,102.844734 137.427078,102.873314 150.501312,102.982124 
z"/>
<path fill="#E0B001" opacity="1.000000" stroke="none" 
	d="
M128.550262,66.938766 
	C130.538284,65.316963 133.267090,65.990746 135.846054,66.049820 
	C145.863266,66.279274 155.903976,65.273026 165.858017,66.873947 
	C153.546616,67.111534 141.276733,67.063278 128.550262,66.938766 
z"/>
<path fill="#E0AF00" opacity="1.000000" stroke="none" 
	d="
M112.482208,116.087158 
	C112.748833,115.724213 113.485130,115.102325 114.217888,115.106461 
	C126.243530,115.174385 138.276505,114.528175 150.619247,115.665939 
	C138.279495,115.983627 125.614861,116.051559 112.482208,116.087158 
z"/>
<path fill="#024700" opacity="1.000000" stroke="none" 
	d="
M168.563354,54.952633 
	C168.264099,54.935913 168.153809,54.513485 168.132233,54.296253 
	C177.703201,53.987968 187.295731,53.896912 197.339325,53.741817 
	C197.817398,53.893383 197.844437,54.108990 197.933426,54.644600 
	C188.997482,56.158279 179.962128,55.234459 170.502808,55.247276 
	C169.660065,55.024170 169.261337,54.996761 168.563354,54.952633 
z"/>
<path fill="#25642A" opacity="1.000000" stroke="none" 
	d="
M187.565887,141.813751 
	C187.726776,144.418137 186.245041,145.770615 183.195496,145.878937 
	C183.601028,143.765381 185.736908,143.196014 187.565887,141.813751 
z"/>
<path fill="#005003" opacity="1.000000" stroke="none" 
	d="
M76.463928,59.066521 
	C76.055061,58.872467 76.059181,58.703510 76.061531,58.281052 
	C78.045204,56.985023 80.161514,57.680828 82.608124,57.784325 
	C82.752609,58.262093 82.505630,58.519577 82.050964,58.949055 
	C80.187820,59.111237 78.532372,59.101425 76.463928,59.066521 
z"/>
<path fill="#DCAD00" opacity="1.000000" stroke="none" 
	d="
M76.260582,65.543869 
	C74.259605,64.348541 75.303543,62.094242 74.984039,59.728237 
	C75.175499,59.284847 75.378487,59.240505 75.889099,59.246304 
	C76.226395,61.239872 76.256058,63.183300 76.260582,65.543869 
z"/>
<path fill="#DEAF07" opacity="1.000000" stroke="none" 
	d="
M201.744400,101.459518 
	C201.978363,101.044197 202.197128,101.052391 202.733459,101.145599 
	C202.881348,102.937164 202.711655,104.643715 202.331116,106.644547 
	C201.989929,105.253563 201.859573,103.568306 201.744400,101.459518 
z"/>
<path fill="#CDA508" opacity="1.000000" stroke="none" 
	d="
M203.050598,115.059875 
	C202.880371,115.424850 202.688385,115.488937 202.193466,115.569946 
	C201.908234,114.638367 201.925934,113.689842 202.009460,112.389366 
	C202.960785,112.745728 202.941116,113.771164 203.050598,115.059875 
z"/>
<path fill="#1F6329" opacity="1.000000" stroke="none" 
	d="
M218.328598,68.233200 
	C231.348495,67.989395 244.700943,67.994583 258.520630,68.003136 
	C258.404236,68.294777 257.820801,68.833984 257.237000,68.834427 
	C244.377502,68.844063 231.509949,69.587097 218.328598,68.233200 
z"/>
<path fill="#236329" opacity="1.000000" stroke="none" 
	d="
M243.661469,99.746681 
	C230.559006,99.697929 217.108246,100.601898 203.354401,99.254395 
	C216.459030,99.302834 229.906006,98.376244 243.661469,99.746681 
z"/>
<path fill="#226329" opacity="1.000000" stroke="none" 
	d="
M203.350220,117.258514 
	C216.030014,117.012718 229.039093,117.014618 242.514374,117.027962 
	C242.229080,117.342690 241.474701,117.916878 240.726562,117.908859 
	C228.377579,117.776596 216.017212,118.588120 203.350220,117.258514 
z"/>
<path fill="#276636" opacity="1.000000" stroke="none" 
	d="
M199.282593,52.629463 
	C199.032898,42.304913 199.026260,31.651255 199.044174,20.537834 
	C200.919586,23.311083 199.942657,26.837273 199.925156,30.200729 
	C199.886871,37.565948 200.564011,44.952732 199.282593,52.629463 
z"/>
<path fill="#286636" opacity="1.000000" stroke="none" 
	d="
M170.385925,55.294136 
	C179.058899,55.031914 188.058990,55.012253 197.527222,54.978600 
	C194.459122,56.999714 190.600967,55.890553 186.913193,55.918049 
	C181.518524,55.958271 176.088669,56.555820 170.385925,55.294136 
z"/>
<path fill="#226329" opacity="1.000000" stroke="none" 
	d="
M210.286255,60.439354 
	C210.126602,59.324566 210.126602,58.398304 210.126602,56.364712 
	C211.073837,58.514778 211.374512,59.554256 210.286255,60.439354 
z"/>
<path fill="#226329" opacity="1.000000" stroke="none" 
	d="
M10.256428,90.661324 
	C10.012870,86.646027 10.009784,82.299377 10.010889,77.491707 
	C11.842959,81.403374 11.049559,85.871040 10.256428,90.661324 
z"/>
<path fill="#20632E" opacity="1.000000" stroke="none" 
	d="
M82.676773,57.757858 
	C80.973511,58.007633 78.947426,58.010658 76.490555,58.020615 
	C74.935097,58.027550 73.810417,58.027550 72.685745,58.027550 
	C75.902496,57.214828 79.113380,56.521294 82.676773,57.757858 
z"/>
<path fill="#226329" opacity="1.000000" stroke="none" 
	d="
M82.652451,150.727356 
	C79.304085,150.971069 75.627846,150.980942 71.495758,150.985382 
	C74.732956,149.228531 78.530899,149.910645 82.652451,150.727356 
z"/>
<path fill="#216329" opacity="1.000000" stroke="none" 
	d="
M77.824936,110.011826 
	C78.933098,110.056458 79.700806,110.100578 80.468513,110.144691 
	C80.465546,110.335098 80.462578,110.525497 80.459610,110.715897 
	C78.514885,110.715897 76.570160,110.715897 74.465012,110.715897 
	C75.380005,109.543785 76.530022,110.223854 77.824936,110.011826 
z"/>
<path fill="#236329" opacity="1.000000" stroke="none" 
	d="
M74.310333,17.748531 
	C72.561287,17.985409 71.125961,17.985409 69.690636,17.985409 
	C69.660660,17.728155 69.630684,17.470901 69.600716,17.213648 
	C70.816124,17.153162 72.031540,17.092678 73.619614,17.037952 
	C74.202866,17.199692 74.413467,17.355673 74.310333,17.748531 
z"/>
<path fill="#226329" opacity="1.000000" stroke="none" 
	d="
M79.691467,17.277615 
	C81.440010,17.043406 82.873016,17.043406 84.306015,17.043406 
	C84.337219,17.293470 84.368416,17.543535 84.399620,17.793600 
	C83.182785,17.859245 81.965950,17.924889 80.376114,17.987991 
	C79.794044,17.827574 79.584984,17.669699 79.691467,17.277615 
z"/>
<path fill="#1F6329" opacity="1.000000" stroke="none" 
	d="
M79.577271,17.032768 
	C80.007011,17.043406 80.003418,17.514610 80.003265,17.750031 
	C78.287117,17.988354 76.571114,17.991261 74.425865,17.989788 
	C73.996613,17.985409 73.996292,17.514011 73.994278,17.278860 
	C75.710686,17.036516 77.429115,17.029322 79.577271,17.032768 
z"/>
</svg>